<?xml version="1.0" encoding="UTF-8"?>
<svg id="Layer_2" data-name="Layer 2" xmlns="http://www.w3.org/2000/svg" xmlns:xlink="http://www.w3.org/1999/xlink" viewBox="0 0 400.68 221.76">
  <defs>
    <style>
      .cls-1 {
        stroke-linecap: round;
        stroke-linejoin: round;
        stroke-width: 1.48px;
      }

      .cls-1, .cls-2, .cls-3, .cls-4, .cls-5, .cls-6 {
        fill: none;
      }

      .cls-1, .cls-5 {
        stroke: #fff;
      }

      .cls-7 {
        fill: #19162b;
      }

      .cls-8 {
        clip-path: url(#clippath-6);
      }

      .cls-9 {
        clip-path: url(#clippath-7);
      }

      .cls-10 {
        fill: #fff;
      }

      .cls-2 {
        clip-path: url(#clippath-4);
      }

      .cls-2, .cls-4, .cls-6 {
        clip-rule: evenodd;
      }

      .cls-11 {
        clip-path: url(#clippath-1);
      }

      .cls-12 {
        clip-path: url(#clippath-5);
      }

      .cls-13 {
        clip-path: url(#clippath-3);
      }

      .cls-5 {
        stroke-miterlimit: 10;
        stroke-width: .74px;
      }

      .cls-14 {
        clip-path: url(#clippath-2);
      }

      .cls-6 {
        clip-path: url(#clippath);
      }
    </style>
    <clipPath id="clippath">
      <polygon class="cls-4" points="0 221.76 400.68 221.76 400.68 0 0 0 0 221.76 0 221.76"/>
    </clipPath>
    <clipPath id="clippath-1">
      <polygon class="cls-6" points="0 0 385.2 0 385.2 221.76 0 221.76 0 0 0 0"/>
    </clipPath>
    <clipPath id="clippath-2">
      <polygon class="cls-3" points="0 221.76 385.2 221.76 385.2 0 0 0 0 221.76 0 221.76"/>
    </clipPath>
    <clipPath id="clippath-3">
      <polygon class="cls-4" points="0 221.76 400.68 221.76 400.68 0 0 0 0 221.76 0 221.76"/>
    </clipPath>
    <clipPath id="clippath-4">
      <polygon class="cls-4" points="0 221.76 400.68 221.76 400.68 0 0 0 0 221.76 0 221.76"/>
    </clipPath>
    <clipPath id="clippath-5">
      <polygon class="cls-2" points="45.48 73.92 122.04 73.92 122.04 138.36 45.48 138.36 45.48 73.92 45.48 73.92"/>
    </clipPath>
    <clipPath id="clippath-6">
      <polygon class="cls-3" points="45.48 138.36 122.04 138.36 122.04 73.92 45.48 73.92 45.48 138.36 45.48 138.36"/>
    </clipPath>
    <clipPath id="clippath-7">
      <polygon class="cls-4" points="0 221.76 400.68 221.76 400.68 0 0 0 0 221.76 0 221.76"/>
    </clipPath>
  </defs>
  <g id="Layer_1-2" data-name="Layer 1">
    <g>
      <g class="cls-11">
        <g class="cls-14">
          <path class="cls-7" d="M332.09,15.7c24.33,10.81,46.36,26.09,51.57,43.61,5.21,17.33-6.38,36.9-17.97,62.81-11.3,25.91-22.89,57.97-56.79,77.72-33.9,19.57-90.11,26.65-143.71,18.64-53.89-7.83-105.46-30.94-135.88-62.63C-1.09,123.99-10.94,83.35,20.63,61.18c31.29-22.18,104.01-26.09,149.5-34.67,45.77-8.39,64.32-21.43,87.21-24.79,22.89-3.35,50.12,3.17,74.74,13.98h0Z"/>
        </g>
      </g>
      <g class="cls-13">
        <g class="cls-12">
          <g class="cls-8">
            <path class="cls-1" d="M59.22,137.54s-11.49-7.2-12.14-11.46c-.65-4.27,3.89-15.39,3.75-20.66-.14-5.26-6.2-21.2.14-28.44,6.33-7.24,12.28,16.06,19.16,16.43,6.88.36,21.64.65,28.12,0s12.38-25.05,18.94-15.98c6.56,9.07,0,22.56,0,27.15s4.18,17.54,4.05,20.52-11.73,12.44-11.73,12.44"/>
            <path class="cls-10" d="M68.41,102.53c1.13.07,1.87.96,2.74,1.69,0,0,.65.54,1.04.89s.72.76.97,1.22l3.01,5.75c.31.6-.22,1.29-.88,1.13l-8.29-2c-1.16-.29-2.24-.85-3.12-1.65l-3.25-2.95s-3.93-3.64-3.4-4.52,11.19.42,11.19.42"/>
            <path class="cls-5" d="M68.41,102.53c1.13.07,1.87.96,2.74,1.69,0,0,.65.54,1.04.89s.72.76.97,1.22l3.01,5.75c.31.6-.22,1.29-.88,1.13l-8.29-2c-1.16-.29-2.24-.85-3.12-1.65l-3.25-2.95s-3.93-3.64-3.4-4.52,11.19.42,11.19.42h0Z"/>
            <path class="cls-10" d="M110.05,102.11c-.8-.88-11.19.42-11.19.42-1.13.07-1.87.96-2.74,1.69l-1.04.89c-.4.35-.72.76-.97,1.22l-3.01,5.75c-.31.6.22,1.29.88,1.14l8.29-2c1.16-.29,2.24-.85,3.12-1.65l3.25-2.95s4.21-3.64,3.4-4.52"/>
            <path class="cls-5" d="M110.05,102.11c-.8-.88-11.19.42-11.19.42-1.13.07-1.87.96-2.74,1.69l-1.04.89c-.4.35-.72.76-.97,1.22l-3.01,5.75c-.31.6.22,1.29.88,1.14l8.29-2c1.16-.29,2.24-.85,3.12-1.65l3.25-2.95s4.21-3.64,3.4-4.52h0Z"/>
            <path class="cls-10" d="M79.65,121.95h8.78l-3.31,3.26c-.59.58-1.56.58-2.15,0l-3.31-3.26h0Z"/>
          </g>
        </g>
        <g class="cls-9">
          <g>
            <path class="cls-10" d="M127.46,124.57v-26.19h16.19v2.92h-12.88v8.54h11.99v2.94h-11.99v8.88h13.01v2.92h-16.31Z"/>
            <path class="cls-10" d="M159.59,124.94c-2.25,0-4.26-.55-6.02-1.65s-3.15-2.66-4.16-4.68-1.51-4.39-1.51-7.12.5-5.12,1.51-7.14,2.39-3.58,4.16-4.68,3.77-1.66,6.02-1.66,4.27.55,6.02,1.66,3.13,2.67,4.14,4.68,1.51,4.39,1.51,7.14-.5,5.1-1.51,7.12-2.39,3.57-4.14,4.68-3.76,1.65-6.02,1.65ZM159.59,121.88c1.57,0,2.99-.4,4.26-1.2s2.29-1.97,3.04-3.52,1.13-3.44,1.13-5.68-.38-4.15-1.13-5.7-1.77-2.73-3.04-3.52-2.69-1.2-4.26-1.2-2.99.4-4.27,1.2-2.29,1.98-3.05,3.52-1.13,3.45-1.13,5.7.38,4.13,1.13,5.67,1.77,2.71,3.05,3.52,2.7,1.2,4.27,1.2Z"/>
            <path class="cls-10" d="M181.18,124.57l-7.14-26.19h3.36l4.17,16.14c.22.84.43,1.71.63,2.58s.39,1.76.58,2.65.36,1.8.53,2.74h-.39c.18-.94.36-1.85.54-2.74s.39-1.78.6-2.65.43-1.74.65-2.58l4.25-16.14h3.76l4.22,16.14c.23.84.45,1.71.66,2.58s.41,1.76.61,2.65.39,1.8.56,2.74h-.46c.18-.94.36-1.85.54-2.74s.39-1.78.6-2.65.42-1.74.63-2.58l4.15-16.14h3.41l-7.17,26.19h-3.85l-4.52-16.66c-.29-1.09-.57-2.26-.84-3.52s-.53-2.65-.79-4.2h.7c-.26,1.48-.51,2.83-.76,4.05s-.54,2.45-.87,3.67l-4.5,16.66h-3.87Z"/>
            <path class="cls-10" d="M209.97,101.29v-2.92h19.9v2.92h-8.28v23.27h-3.3v-23.27h-8.31Z"/>
            <path class="cls-10" d="M234.4,124.57v-26.19h9.12c1.99,0,3.65.34,4.97,1.03s2.31,1.63,2.97,2.85.98,2.6.98,4.17-.33,2.97-1,4.17-1.66,2.12-2.99,2.79-2.98.99-4.97.99h-7.24v-2.94h7.15c1.35,0,2.44-.2,3.29-.61s1.47-.98,1.87-1.73.61-1.64.61-2.67-.2-1.95-.61-2.72-1.03-1.37-1.88-1.79-1.95-.64-3.31-.64h-5.66v23.29h-3.3ZM249.49,124.57l-6.33-11.79h3.73l6.43,11.79h-3.83Z"/>
            <path class="cls-10" d="M255.2,124.57l9.54-26.19h3.8l9.62,26.19h-3.48l-5.54-15.59c-.35-.98-.75-2.18-1.2-3.59s-1-3.23-1.64-5.44h.69c-.64,2.23-1.2,4.06-1.66,5.49s-.85,2.62-1.17,3.54l-5.45,15.59h-3.5ZM260.03,117.26v-2.9h13.31v2.9h-13.31Z"/>
            <path class="cls-10" d="M292.66,124.94c-2.27,0-4.29-.55-6.06-1.65s-3.16-2.66-4.16-4.68-1.5-4.39-1.5-7.12.5-5.14,1.5-7.15,2.39-3.57,4.16-4.68,3.79-1.66,6.06-1.66c1.34,0,2.6.2,3.78.59s2.25.96,3.19,1.71,1.73,1.66,2.36,2.72,1.06,2.28,1.29,3.64h-3.32c-.19-.91-.51-1.72-.96-2.41s-1-1.28-1.66-1.76-1.38-.84-2.17-1.08-1.63-.36-2.5-.36c-1.63,0-3.08.41-4.37,1.23s-2.29,2.01-3.02,3.56-1.1,3.43-1.1,5.63.37,4.06,1.11,5.62,1.75,2.74,3.03,3.55,2.73,1.22,4.35,1.22c.88,0,1.71-.12,2.5-.37s1.51-.61,2.16-1.08,1.2-1.06,1.66-1.75.79-1.49.98-2.39h3.3c-.22,1.34-.65,2.53-1.28,3.59s-1.42,1.97-2.36,2.72-2,1.33-3.18,1.73-2.45.6-3.8.6Z"/>
            <path class="cls-10" d="M308.21,124.57v-26.19h3.3v9l-.05,5.62.05,1.62v9.95h-3.3ZM310.46,117.08v-3.69c.6-.8,1.2-1.56,1.79-2.29s1.21-1.44,1.83-2.15,1.25-1.41,1.9-2.1l7.86-8.47h4.32l-11.18,11.97-.18-.02-6.35,6.75ZM324.28,124.57l-9.51-13.36,2.04-2.57,11.37,15.93h-3.9Z"/>
            <path class="cls-10" d="M340.54,125.02c-1.91,0-3.57-.32-4.98-.96s-2.51-1.53-3.3-2.67-1.22-2.49-1.3-4.03h3.38c.07,1.04.39,1.91.95,2.61s1.3,1.22,2.22,1.56,1.93.52,3.03.52c1.21,0,2.28-.19,3.23-.58s1.69-.93,2.23-1.63.82-1.51.82-2.43c0-.82-.22-1.5-.67-2.03s-1.06-.98-1.84-1.33-1.67-.66-2.68-.93l-3.11-.86c-2.24-.61-3.94-1.47-5.12-2.58s-1.76-2.53-1.76-4.28c0-1.49.39-2.79,1.18-3.89s1.86-1.97,3.22-2.58,2.89-.92,4.61-.92,3.28.31,4.61.93,2.38,1.48,3.14,2.57,1.17,2.33,1.21,3.73h-3.23c-.14-1.36-.74-2.41-1.81-3.16s-2.41-1.12-4.03-1.12c-1.12,0-2.12.19-2.97.56s-1.52.88-2,1.53-.71,1.38-.71,2.21.26,1.56.78,2.1,1.17.98,1.95,1.31,1.56.6,2.33.81l2.69.72c.83.21,1.68.5,2.55.85s1.67.81,2.41,1.36,1.34,1.24,1.79,2.06.69,1.8.69,2.95c0,1.45-.38,2.75-1.13,3.9s-1.84,2.05-3.26,2.72-3.12.99-5.12.99Z"/>
          </g>
        </g>
      </g>
    </g>
  </g>
</svg>