<svg width="193" height="197" viewBox="0 0 193 197" fill="none" xmlns="http://www.w3.org/2000/svg">
<g clip-path="url(#clip0_230_20)">
<g clip-path="url(#clip1_230_20)">
<mask id="mask0_230_20" style="mask-type:luminance" maskUnits="userSpaceOnUse" x="13" y="16" width="168" height="168">
<path d="M18.7667 67.9H13V73.6667H18.7667V67.9Z" fill="white"/>
<path d="M18.7667 79.4333H13V85.2H18.7667V79.4333Z" fill="white"/>
<path d="M18.7667 90.9667H13V96.7333H18.7667V90.9667Z" fill="white"/>
<path d="M18.7667 108.267H13V114.033H18.7667V108.267Z" fill="white"/>
<path d="M18.7667 114.033H13V119.8H18.7667V114.033Z" fill="white"/>
<path d="M18.7667 119.8H13V125.567H18.7667V119.8Z" fill="white"/>
<path d="M18.7667 125.567H13V131.333H18.7667V125.567Z" fill="white"/>
<path d="M24.5333 67.9H18.7666V73.6667H24.5333V67.9Z" fill="white"/>
<path d="M24.5333 73.6667H18.7666V79.4334H24.5333V73.6667Z" fill="white"/>
<path d="M24.5333 90.9667H18.7666V96.7333H24.5333V90.9667Z" fill="white"/>
<path d="M24.5333 96.7333H18.7666V102.5H24.5333V96.7333Z" fill="white"/>
<path d="M24.5333 102.5H18.7666V108.267H24.5333V102.5Z" fill="white"/>
<path d="M24.5333 125.567H18.7666V131.333H24.5333V125.567Z" fill="white"/>
<path d="M30.2999 67.9H24.5332V73.6667H30.2999V67.9Z" fill="white"/>
<path d="M30.2999 73.6667H24.5332V79.4334H30.2999V73.6667Z" fill="white"/>
<path d="M30.2999 85.2H24.5332V90.9667H30.2999V85.2Z" fill="white"/>
<path d="M30.2999 90.9667H24.5332V96.7333H30.2999V90.9667Z" fill="white"/>
<path d="M30.2999 96.7333H24.5332V102.5H30.2999V96.7333Z" fill="white"/>
<path d="M30.2999 102.5H24.5332V108.267H30.2999V102.5Z" fill="white"/>
<path d="M30.2999 114.033H24.5332V119.8H30.2999V114.033Z" fill="white"/>
<path d="M36.0665 62.1333H30.2998V67.9H36.0665V62.1333Z" fill="white"/>
<path d="M36.0665 73.6667H30.2998V79.4334H36.0665V73.6667Z" fill="white"/>
<path d="M36.0665 102.5H30.2998V108.267H36.0665V102.5Z" fill="white"/>
<path d="M36.0665 108.267H30.2998V114.033H36.0665V108.267Z" fill="white"/>
<path d="M36.0665 114.033H30.2998V119.8H36.0665V114.033Z" fill="white"/>
<path d="M36.0665 119.8H30.2998V125.567H36.0665V119.8Z" fill="white"/>
<path d="M36.0665 125.567H30.2998V131.333H36.0665V125.567Z" fill="white"/>
<path d="M36.0665 131.333H30.2998V137.1H36.0665V131.333Z" fill="white"/>
<path d="M41.8331 73.6667H36.0664V79.4334H41.8331V73.6667Z" fill="white"/>
<path d="M41.8331 79.4333H36.0664V85.2H41.8331V79.4333Z" fill="white"/>
<path d="M41.8331 108.267H36.0664V114.033H41.8331V108.267Z" fill="white"/>
<path d="M41.8331 114.033H36.0664V119.8H41.8331V114.033Z" fill="white"/>
<path d="M47.5997 62.1333H41.833V67.9H47.5997V62.1333Z" fill="white"/>
<path d="M47.5997 73.6667H41.833V79.4334H47.5997V73.6667Z" fill="white"/>
<path d="M47.5997 85.2H41.833V90.9667H47.5997V85.2Z" fill="white"/>
<path d="M47.5997 90.9667H41.833V96.7333H47.5997V90.9667Z" fill="white"/>
<path d="M53.3663 62.1333H47.5996V67.9H53.3663V62.1333Z" fill="white"/>
<path d="M53.3663 73.6667H47.5996V79.4334H53.3663V73.6667Z" fill="white"/>
<path d="M53.3663 85.2H47.5996V90.9667H53.3663V85.2Z" fill="white"/>
<path d="M53.3663 96.7333H47.5996V102.5H53.3663V96.7333Z" fill="white"/>
<path d="M53.3663 108.267H47.5996V114.033H53.3663V108.267Z" fill="white"/>
<path d="M53.3663 119.8H47.5996V125.567H53.3663V119.8Z" fill="white"/>
<path d="M53.3663 131.333H47.5996V137.1H53.3663V131.333Z" fill="white"/>
<path d="M59.1329 62.1333H53.3662V67.9H59.1329V62.1333Z" fill="white"/>
<path d="M59.1329 67.9H53.3662V73.6667H59.1329V67.9Z" fill="white"/>
<path d="M59.1329 90.9667H53.3662V96.7333H59.1329V90.9667Z" fill="white"/>
<path d="M59.1329 102.5H53.3662V108.267H59.1329V102.5Z" fill="white"/>
<path d="M59.1329 108.267H53.3662V114.033H59.1329V108.267Z" fill="white"/>
<path d="M59.1329 119.8H53.3662V125.567H59.1329V119.8Z" fill="white"/>
<path d="M59.1329 125.567H53.3662V131.333H59.1329V125.567Z" fill="white"/>
<path d="M64.9005 21.7667H59.1338V27.5333H64.9005V21.7667Z" fill="white"/>
<path d="M64.9005 27.5333H59.1338V33.3H64.9005V27.5333Z" fill="white"/>
<path d="M64.9005 50.6H59.1338V56.3666H64.9005V50.6Z" fill="white"/>
<path d="M64.9005 67.9H59.1338V73.6667H64.9005V67.9Z" fill="white"/>
<path d="M64.9005 79.4333H59.1338V85.2H64.9005V79.4333Z" fill="white"/>
<path d="M64.9005 90.9667H59.1338V96.7333H64.9005V90.9667Z" fill="white"/>
<path d="M64.9005 96.7333H59.1338V102.5H64.9005V96.7333Z" fill="white"/>
<path d="M64.9005 102.5H59.1338V108.267H64.9005V102.5Z" fill="white"/>
<path d="M64.9005 114.033H59.1338V119.8H64.9005V114.033Z" fill="white"/>
<path d="M64.9005 119.8H59.1338V125.567H64.9005V119.8Z" fill="white"/>
<path d="M64.9005 125.567H59.1338V131.333H64.9005V125.567Z" fill="white"/>
<path d="M64.9005 131.333H59.1338V137.1H64.9005V131.333Z" fill="white"/>
<path d="M64.9005 142.867H59.1338V148.633H64.9005V142.867Z" fill="white"/>
<path d="M64.9005 148.633H59.1338V154.4H64.9005V148.633Z" fill="white"/>
<path d="M64.9005 160.167H59.1338V165.933H64.9005V160.167Z" fill="white"/>
<path d="M70.6671 16H64.9004V21.7667H70.6671V16Z" fill="white"/>
<path d="M70.6671 27.5333H64.9004V33.3H70.6671V27.5333Z" fill="white"/>
<path d="M70.6671 33.3H64.9004V39.0667H70.6671V33.3Z" fill="white"/>
<path d="M70.6671 39.0667H64.9004V44.8333H70.6671V39.0667Z" fill="white"/>
<path d="M70.6671 44.8333H64.9004V50.6H70.6671V44.8333Z" fill="white"/>
<path d="M70.6671 62.1333H64.9004V67.9H70.6671V62.1333Z" fill="white"/>
<path d="M70.6671 73.6667H64.9004V79.4334H70.6671V73.6667Z" fill="white"/>
<path d="M70.6671 79.4333H64.9004V85.2H70.6671V79.4333Z" fill="white"/>
<path d="M70.6671 90.9667H64.9004V96.7333H70.6671V90.9667Z" fill="white"/>
<path d="M70.6671 119.8H64.9004V125.567H70.6671V119.8Z" fill="white"/>
<path d="M70.6671 137.1H64.9004V142.867H70.6671V137.1Z" fill="white"/>
<path d="M70.6671 148.633H64.9004V154.4H70.6671V148.633Z" fill="white"/>
<path d="M70.6671 160.167H64.9004V165.933H70.6671V160.167Z" fill="white"/>
<path d="M70.6671 165.933H64.9004V171.7H70.6671V165.933Z" fill="white"/>
<path d="M70.6671 171.7H64.9004V177.467H70.6671V171.7Z" fill="white"/>
<path d="M70.6671 177.467H64.9004V183.233H70.6671V177.467Z" fill="white"/>
<path d="M76.4337 21.7667H70.667V27.5333H76.4337V21.7667Z" fill="white"/>
<path d="M76.4337 50.6H70.667V56.3666H76.4337V50.6Z" fill="white"/>
<path d="M76.4337 56.3667H70.667V62.1334H76.4337V56.3667Z" fill="white"/>
<path d="M76.4337 73.6667H70.667V79.4334H76.4337V73.6667Z" fill="white"/>
<path d="M76.4337 79.4333H70.667V85.2H76.4337V79.4333Z" fill="white"/>
<path d="M76.4337 102.5H70.667V108.267H76.4337V102.5Z" fill="white"/>
<path d="M76.4337 119.8H70.667V125.567H76.4337V119.8Z" fill="white"/>
<path d="M76.4337 125.567H70.667V131.333H76.4337V125.567Z" fill="white"/>
<path d="M76.4337 131.333H70.667V137.1H76.4337V131.333Z" fill="white"/>
<path d="M76.4337 137.1H70.667V142.867H76.4337V137.1Z" fill="white"/>
<path d="M76.4337 154.4H70.667V160.167H76.4337V154.4Z" fill="white"/>
<path d="M76.4337 177.467H70.667V183.233H76.4337V177.467Z" fill="white"/>
<path d="M82.2003 39.0667H76.4336V44.8333H82.2003V39.0667Z" fill="white"/>
<path d="M82.2003 44.8333H76.4336V50.6H82.2003V44.8333Z" fill="white"/>
<path d="M82.2003 62.1333H76.4336V67.9H82.2003V62.1333Z" fill="white"/>
<path d="M82.2003 67.9H76.4336V73.6667H82.2003V67.9Z" fill="white"/>
<path d="M82.2003 79.4333H76.4336V85.2H82.2003V79.4333Z" fill="white"/>
<path d="M82.2003 102.5H76.4336V108.267H82.2003V102.5Z" fill="white"/>
<path d="M82.2003 108.267H76.4336V114.033H82.2003V108.267Z" fill="white"/>
<path d="M82.2003 142.867H76.4336V148.633H82.2003V142.867Z" fill="white"/>
<path d="M82.2003 154.4H76.4336V160.167H82.2003V154.4Z" fill="white"/>
<path d="M82.2003 160.167H76.4336V165.933H82.2003V160.167Z" fill="white"/>
<path d="M87.9669 16H82.2002V21.7667H87.9669V16Z" fill="white"/>
<path d="M87.9669 21.7667H82.2002V27.5333H87.9669V21.7667Z" fill="white"/>
<path d="M87.9669 27.5333H82.2002V33.3H87.9669V27.5333Z" fill="white"/>
<path d="M87.9669 33.3H82.2002V39.0667H87.9669V33.3Z" fill="white"/>
<path d="M87.9669 50.6H82.2002V56.3666H87.9669V50.6Z" fill="white"/>
<path d="M87.9669 85.2H82.2002V90.9667H87.9669V85.2Z" fill="white"/>
<path d="M87.9669 96.7333H82.2002V102.5H87.9669V96.7333Z" fill="white"/>
<path d="M87.9669 102.5H82.2002V108.267H87.9669V102.5Z" fill="white"/>
<path d="M87.9669 119.8H82.2002V125.567H87.9669V119.8Z" fill="white"/>
<path d="M87.9669 137.1H82.2002V142.867H87.9669V137.1Z" fill="white"/>
<path d="M87.9669 142.867H82.2002V148.633H87.9669V142.867Z" fill="white"/>
<path d="M87.9669 160.167H82.2002V165.933H87.9669V160.167Z" fill="white"/>
<path d="M87.9669 165.933H82.2002V171.7H87.9669V165.933Z" fill="white"/>
<path d="M87.9669 171.7H82.2002V177.467H87.9669V171.7Z" fill="white"/>
<path d="M93.7335 16H87.9668V21.7667H93.7335V16Z" fill="white"/>
<path d="M93.7335 44.8333H87.9668V50.6H93.7335V44.8333Z" fill="white"/>
<path d="M93.7335 62.1333H87.9668V67.9H93.7335V62.1333Z" fill="white"/>
<path d="M93.7335 73.6667H87.9668V79.4334H93.7335V73.6667Z" fill="white"/>
<path d="M93.7335 79.4333H87.9668V85.2H93.7335V79.4333Z" fill="white"/>
<path d="M93.7335 102.5H87.9668V108.267H93.7335V102.5Z" fill="white"/>
<path d="M93.7335 108.267H87.9668V114.033H93.7335V108.267Z" fill="white"/>
<path d="M93.7335 114.033H87.9668V119.8H93.7335V114.033Z" fill="white"/>
<path d="M93.7335 125.567H87.9668V131.333H93.7335V125.567Z" fill="white"/>
<path d="M93.7335 131.333H87.9668V137.1H93.7335V131.333Z" fill="white"/>
<path d="M93.7335 142.867H87.9668V148.633H93.7335V142.867Z" fill="white"/>
<path d="M93.7335 160.167H87.9668V165.933H93.7335V160.167Z" fill="white"/>
<path d="M93.7335 177.467H87.9668V183.233H93.7335V177.467Z" fill="white"/>
<path d="M99.5001 21.7667H93.7334V27.5333H99.5001V21.7667Z" fill="white"/>
<path d="M99.5001 27.5333H93.7334V33.3H99.5001V27.5333Z" fill="white"/>
<path d="M99.5001 39.0667H93.7334V44.8333H99.5001V39.0667Z" fill="white"/>
<path d="M99.5001 50.6H93.7334V56.3666H99.5001V50.6Z" fill="white"/>
<path d="M99.5001 62.1333H93.7334V67.9H99.5001V62.1333Z" fill="white"/>
<path d="M99.5001 67.9H93.7334V73.6667H99.5001V67.9Z" fill="white"/>
<path d="M99.5001 102.5H93.7334V108.267H99.5001V102.5Z" fill="white"/>
<path d="M99.5001 125.567H93.7334V131.333H99.5001V125.567Z" fill="white"/>
<path d="M99.5001 131.333H93.7334V137.1H99.5001V131.333Z" fill="white"/>
<path d="M99.5001 137.1H93.7334V142.867H99.5001V137.1Z" fill="white"/>
<path d="M99.5001 142.867H93.7334V148.633H99.5001V142.867Z" fill="white"/>
<path d="M99.5001 160.167H93.7334V165.933H99.5001V160.167Z" fill="white"/>
<path d="M99.5001 165.933H93.7334V171.7H99.5001V165.933Z" fill="white"/>
<path d="M99.5001 171.7H93.7334V177.467H99.5001V171.7Z" fill="white"/>
<path d="M99.5001 177.467H93.7334V183.233H99.5001V177.467Z" fill="white"/>
<path d="M105.267 27.5333H99.5V33.3H105.267V27.5333Z" fill="white"/>
<path d="M105.267 44.8333H99.5V50.6H105.267V44.8333Z" fill="white"/>
<path d="M105.267 62.1333H99.5V67.9H105.267V62.1333Z" fill="white"/>
<path d="M105.267 67.9H99.5V73.6667H105.267V67.9Z" fill="white"/>
<path d="M105.267 73.6667H99.5V79.4334H105.267V73.6667Z" fill="white"/>
<path d="M105.267 90.9667H99.5V96.7333H105.267V90.9667Z" fill="white"/>
<path d="M105.267 96.7333H99.5V102.5H105.267V96.7333Z" fill="white"/>
<path d="M105.267 108.267H99.5V114.033H105.267V108.267Z" fill="white"/>
<path d="M105.267 114.033H99.5V119.8H105.267V114.033Z" fill="white"/>
<path d="M105.267 131.333H99.5V137.1H105.267V131.333Z" fill="white"/>
<path d="M105.267 160.167H99.5V165.933H105.267V160.167Z" fill="white"/>
<path d="M105.267 171.7H99.5V177.467H105.267V171.7Z" fill="white"/>
<path d="M105.267 177.467H99.5V183.233H105.267V177.467Z" fill="white"/>
<path d="M111.033 44.8333H105.267V50.6H111.033V44.8333Z" fill="white"/>
<path d="M111.033 50.6H105.267V56.3666H111.033V50.6Z" fill="white"/>
<path d="M111.033 56.3667H105.267V62.1334H111.033V56.3667Z" fill="white"/>
<path d="M111.033 73.6667H105.267V79.4334H111.033V73.6667Z" fill="white"/>
<path d="M111.033 90.9667H105.267V96.7333H111.033V90.9667Z" fill="white"/>
<path d="M111.033 96.7333H105.267V102.5H111.033V96.7333Z" fill="white"/>
<path d="M111.033 114.033H105.267V119.8H111.033V114.033Z" fill="white"/>
<path d="M111.033 125.567H105.267V131.333H111.033V125.567Z" fill="white"/>
<path d="M111.033 142.867H105.267V148.633H111.033V142.867Z" fill="white"/>
<path d="M111.033 154.4H105.267V160.167H111.033V154.4Z" fill="white"/>
<path d="M111.033 171.7H105.267V177.467H111.033V171.7Z" fill="white"/>
<path d="M116.8 33.3H111.033V39.0667H116.8V33.3Z" fill="white"/>
<path d="M116.8 44.8333H111.033V50.6H116.8V44.8333Z" fill="white"/>
<path d="M116.8 62.1333H111.033V67.9H116.8V62.1333Z" fill="white"/>
<path d="M116.8 67.9H111.033V73.6667H116.8V67.9Z" fill="white"/>
<path d="M116.8 90.9667H111.033V96.7333H116.8V90.9667Z" fill="white"/>
<path d="M116.8 114.033H111.033V119.8H116.8V114.033Z" fill="white"/>
<path d="M116.8 131.333H111.033V137.1H116.8V131.333Z" fill="white"/>
<path d="M116.8 137.1H111.033V142.867H116.8V137.1Z" fill="white"/>
<path d="M116.8 148.633H111.033V154.4H116.8V148.633Z" fill="white"/>
<path d="M116.8 165.933H111.033V171.7H116.8V165.933Z" fill="white"/>
<path d="M116.8 177.467H111.033V183.233H116.8V177.467Z" fill="white"/>
<path d="M122.566 16H116.8V21.7667H122.566V16Z" fill="white"/>
<path d="M122.566 21.7667H116.8V27.5333H122.566V21.7667Z" fill="white"/>
<path d="M122.566 39.0667H116.8V44.8333H122.566V39.0667Z" fill="white"/>
<path d="M122.566 44.8333H116.8V50.6H122.566V44.8333Z" fill="white"/>
<path d="M122.566 50.6H116.8V56.3666H122.566V50.6Z" fill="white"/>
<path d="M122.566 90.9667H116.8V96.7333H122.566V90.9667Z" fill="white"/>
<path d="M122.566 96.7333H116.8V102.5H122.566V96.7333Z" fill="white"/>
<path d="M122.566 102.5H116.8V108.267H122.566V102.5Z" fill="white"/>
<path d="M122.566 125.567H116.8V131.333H122.566V125.567Z" fill="white"/>
<path d="M122.566 148.633H116.8V154.4H122.566V148.633Z" fill="white"/>
<path d="M122.566 154.4H116.8V160.167H122.566V154.4Z" fill="white"/>
<path d="M122.566 160.167H116.8V165.933H122.566V160.167Z" fill="white"/>
<path d="M122.566 165.933H116.8V171.7H122.566V165.933Z" fill="white"/>
<path d="M122.566 177.467H116.8V183.233H122.566V177.467Z" fill="white"/>
<path d="M128.333 27.5333H122.566V33.3H128.333V27.5333Z" fill="white"/>
<path d="M128.333 39.0667H122.566V44.8333H128.333V39.0667Z" fill="white"/>
<path d="M128.333 56.3667H122.566V62.1334H128.333V56.3667Z" fill="white"/>
<path d="M128.333 62.1333H122.566V67.9H128.333V62.1333Z" fill="white"/>
<path d="M128.333 67.9H122.566V73.6667H128.333V67.9Z" fill="white"/>
<path d="M128.333 96.7333H122.566V102.5H128.333V96.7333Z" fill="white"/>
<path d="M128.333 137.1H122.566V142.867H128.333V137.1Z" fill="white"/>
<path d="M128.333 142.867H122.566V148.633H128.333V142.867Z" fill="white"/>
<path d="M128.333 148.633H122.566V154.4H128.333V148.633Z" fill="white"/>
<path d="M128.333 160.167H122.566V165.933H128.333V160.167Z" fill="white"/>
<path d="M128.333 177.467H122.566V183.233H128.333V177.467Z" fill="white"/>
<path d="M134.1 16H128.333V21.7667H134.1V16Z" fill="white"/>
<path d="M134.1 21.7667H128.333V27.5333H134.1V21.7667Z" fill="white"/>
<path d="M134.1 39.0667H128.333V44.8333H134.1V39.0667Z" fill="white"/>
<path d="M134.1 50.6H128.333V56.3666H134.1V50.6Z" fill="white"/>
<path d="M134.1 56.3667H128.333V62.1334H134.1V56.3667Z" fill="white"/>
<path d="M134.1 73.6667H128.333V79.4334H134.1V73.6667Z" fill="white"/>
<path d="M134.1 90.9667H128.333V96.7333H134.1V90.9667Z" fill="white"/>
<path d="M134.1 102.5H128.333V108.267H134.1V102.5Z" fill="white"/>
<path d="M134.1 108.267H128.333V114.033H134.1V108.267Z" fill="white"/>
<path d="M134.1 125.567H128.333V131.333H134.1V125.567Z" fill="white"/>
<path d="M134.1 131.333H128.333V137.1H134.1V131.333Z" fill="white"/>
<path d="M134.1 137.1H128.333V142.867H134.1V137.1Z" fill="white"/>
<path d="M134.1 142.867H128.333V148.633H134.1V142.867Z" fill="white"/>
<path d="M134.1 148.633H128.333V154.4H134.1V148.633Z" fill="white"/>
<path d="M134.1 154.4H128.333V160.167H134.1V154.4Z" fill="white"/>
<path d="M134.1 160.167H128.333V165.933H134.1V160.167Z" fill="white"/>
<path d="M134.1 165.933H128.333V171.7H134.1V165.933Z" fill="white"/>
<path d="M134.1 171.7H128.333V177.467H134.1V171.7Z" fill="white"/>
<path d="M139.866 62.1333H134.1V67.9H139.866V62.1333Z" fill="white"/>
<path d="M139.866 67.9H134.1V73.6667H139.866V67.9Z" fill="white"/>
<path d="M139.866 73.6667H134.1V79.4334H139.866V73.6667Z" fill="white"/>
<path d="M139.866 79.4333H134.1V85.2H139.866V79.4333Z" fill="white"/>
<path d="M139.866 90.9667H134.1V96.7333H139.866V90.9667Z" fill="white"/>
<path d="M139.866 96.7333H134.1V102.5H139.866V96.7333Z" fill="white"/>
<path d="M139.866 102.5H134.1V108.267H139.866V102.5Z" fill="white"/>
<path d="M139.866 108.267H134.1V114.033H139.866V108.267Z" fill="white"/>
<path d="M139.866 125.567H134.1V131.333H139.866V125.567Z" fill="white"/>
<path d="M139.866 131.333H134.1V137.1H139.866V131.333Z" fill="white"/>
<path d="M139.866 154.4H134.1V160.167H139.866V154.4Z" fill="white"/>
<path d="M139.866 160.167H134.1V165.933H139.866V160.167Z" fill="white"/>
<path d="M139.866 177.467H134.1V183.233H139.866V177.467Z" fill="white"/>
<path d="M145.633 67.9H139.866V73.6667H145.633V67.9Z" fill="white"/>
<path d="M145.633 73.6667H139.866V79.4334H145.633V73.6667Z" fill="white"/>
<path d="M145.633 85.2H139.866V90.9667H145.633V85.2Z" fill="white"/>
<path d="M145.633 96.7333H139.866V102.5H145.633V96.7333Z" fill="white"/>
<path d="M145.633 102.5H139.866V108.267H145.633V102.5Z" fill="white"/>
<path d="M145.633 114.033H139.866V119.8H145.633V114.033Z" fill="white"/>
<path d="M145.633 119.8H139.866V125.567H145.633V119.8Z" fill="white"/>
<path d="M145.633 131.333H139.866V137.1H145.633V131.333Z" fill="white"/>
<path d="M145.633 142.867H139.866V148.633H145.633V142.867Z" fill="white"/>
<path d="M145.633 154.4H139.866V160.167H145.633V154.4Z" fill="white"/>
<path d="M145.633 160.167H139.866V165.933H145.633V160.167Z" fill="white"/>
<path d="M145.633 165.933H139.866V171.7H145.633V165.933Z" fill="white"/>
<path d="M145.633 177.467H139.866V183.233H145.633V177.467Z" fill="white"/>
<path d="M151.4 67.9H145.634V73.6667H151.4V67.9Z" fill="white"/>
<path d="M151.4 90.9667H145.634V96.7333H151.4V90.9667Z" fill="white"/>
<path d="M151.4 119.8H145.634V125.567H151.4V119.8Z" fill="white"/>
<path d="M151.4 125.567H145.634V131.333H151.4V125.567Z" fill="white"/>
<path d="M151.4 131.333H145.634V137.1H151.4V131.333Z" fill="white"/>
<path d="M151.4 154.4H145.634V160.167H151.4V154.4Z" fill="white"/>
<path d="M151.4 160.167H145.634V165.933H151.4V160.167Z" fill="white"/>
<path d="M151.4 177.467H145.634V183.233H151.4V177.467Z" fill="white"/>
<path d="M157.167 67.9H151.4V73.6667H157.167V67.9Z" fill="white"/>
<path d="M157.167 85.2H151.4V90.9667H157.167V85.2Z" fill="white"/>
<path d="M157.167 90.9667H151.4V96.7333H157.167V90.9667Z" fill="white"/>
<path d="M157.167 96.7333H151.4V102.5H157.167V96.7333Z" fill="white"/>
<path d="M157.167 108.267H151.4V114.033H157.167V108.267Z" fill="white"/>
<path d="M157.167 114.033H151.4V119.8H157.167V114.033Z" fill="white"/>
<path d="M157.167 119.8H151.4V125.567H157.167V119.8Z" fill="white"/>
<path d="M157.167 125.567H151.4V131.333H157.167V125.567Z" fill="white"/>
<path d="M157.167 131.333H151.4V137.1H157.167V131.333Z" fill="white"/>
<path d="M157.167 137.1H151.4V142.867H157.167V137.1Z" fill="white"/>
<path d="M157.167 142.867H151.4V148.633H157.167V142.867Z" fill="white"/>
<path d="M157.167 148.633H151.4V154.4H157.167V148.633Z" fill="white"/>
<path d="M157.167 154.4H151.4V160.167H157.167V154.4Z" fill="white"/>
<path d="M162.934 67.9H157.167V73.6667H162.934V67.9Z" fill="white"/>
<path d="M162.934 73.6667H157.167V79.4334H162.934V73.6667Z" fill="white"/>
<path d="M162.934 108.267H157.167V114.033H162.934V108.267Z" fill="white"/>
<path d="M162.934 114.033H157.167V119.8H162.934V114.033Z" fill="white"/>
<path d="M162.934 119.8H157.167V125.567H162.934V119.8Z" fill="white"/>
<path d="M162.934 125.567H157.167V131.333H162.934V125.567Z" fill="white"/>
<path d="M162.934 131.333H157.167V137.1H162.934V131.333Z" fill="white"/>
<path d="M162.934 148.633H157.167V154.4H162.934V148.633Z" fill="white"/>
<path d="M162.934 154.4H157.167V160.167H162.934V154.4Z" fill="white"/>
<path d="M162.934 160.167H157.167V165.933H162.934V160.167Z" fill="white"/>
<path d="M162.934 165.933H157.167V171.7H162.934V165.933Z" fill="white"/>
<path d="M162.934 171.7H157.167V177.467H162.934V171.7Z" fill="white"/>
<path d="M168.7 62.1333H162.934V67.9H168.7V62.1333Z" fill="white"/>
<path d="M168.7 67.9H162.934V73.6667H168.7V67.9Z" fill="white"/>
<path d="M168.7 79.4333H162.934V85.2H168.7V79.4333Z" fill="white"/>
<path d="M168.7 108.267H162.934V114.033H168.7V108.267Z" fill="white"/>
<path d="M168.7 114.033H162.934V119.8H168.7V114.033Z" fill="white"/>
<path d="M168.7 137.1H162.934V142.867H168.7V137.1Z" fill="white"/>
<path d="M168.7 154.4H162.934V160.167H168.7V154.4Z" fill="white"/>
<path d="M168.7 160.167H162.934V165.933H168.7V160.167Z" fill="white"/>
<path d="M168.7 171.7H162.934V177.467H168.7V171.7Z" fill="white"/>
<path d="M168.7 177.467H162.934V183.233H168.7V177.467Z" fill="white"/>
<path d="M174.467 62.1333H168.7V67.9H174.467V62.1333Z" fill="white"/>
<path d="M174.467 67.9H168.7V73.6667H174.467V67.9Z" fill="white"/>
<path d="M174.467 73.6667H168.7V79.4334H174.467V73.6667Z" fill="white"/>
<path d="M174.467 102.5H168.7V108.267H174.467V102.5Z" fill="white"/>
<path d="M174.467 108.267H168.7V114.033H174.467V108.267Z" fill="white"/>
<path d="M174.467 125.567H168.7V131.333H174.467V125.567Z" fill="white"/>
<path d="M174.467 137.1H168.7V142.867H174.467V137.1Z" fill="white"/>
<path d="M174.467 160.167H168.7V165.933H174.467V160.167Z" fill="white"/>
<path d="M180.233 79.4333H174.467V85.2H180.233V79.4333Z" fill="white"/>
<path d="M180.233 108.267H174.467V114.033H180.233V108.267Z" fill="white"/>
<path d="M180.233 131.333H174.467V137.1H180.233V131.333Z" fill="white"/>
<path d="M180.233 137.1H174.467V142.867H180.233V137.1Z" fill="white"/>
<path d="M180.233 142.867H174.467V148.633H180.233V142.867Z" fill="white"/>
<path d="M180.233 148.633H174.467V154.4H180.233V148.633Z" fill="white"/>
<path d="M180.233 154.4H174.467V160.167H180.233V154.4Z" fill="white"/>
<path d="M180.233 165.933H174.467V171.7H180.233V165.933Z" fill="white"/>
<path d="M180.233 177.467H174.467V183.233H180.233V177.467Z" fill="white"/>
</mask>
<g mask="url(#mask0_230_20)">
<path d="M183.116 13.1166H10.1162V186.117H183.116V13.1166Z" fill="black"/>
</g>
<mask id="mask1_230_20" style="mask-type:luminance" maskUnits="userSpaceOnUse" x="12" y="15" width="42" height="42">
<path fill-rule="evenodd" clip-rule="evenodd" d="M12.8838 15.8834V56.25H53.2505V15.8834H12.8838ZM18.6505 21.65H47.4838V50.4834H18.6505V21.65Z" fill="white"/>
</mask>
<g mask="url(#mask1_230_20)">
<path d="M53.2505 15.8834H12.8838V56.25H53.2505V15.8834Z" fill="black"/>
</g>
<mask id="mask2_230_20" style="mask-type:luminance" maskUnits="userSpaceOnUse" x="24" y="27" width="18" height="18">
<path d="M41.717 27.4167H24.417V44.7167H41.717V27.4167Z" fill="white"/>
</mask>
<g mask="url(#mask2_230_20)">
<path d="M41.717 27.4167H24.417V44.7167H41.717V27.4167Z" fill="black"/>
</g>
<mask id="mask3_230_20" style="mask-type:luminance" maskUnits="userSpaceOnUse" x="139" y="15" width="42" height="42">
<path fill-rule="evenodd" clip-rule="evenodd" d="M180.117 15.8834L139.751 15.8834V56.25H180.117V15.8834ZM174.351 21.65V50.4834H145.517V21.65H174.351Z" fill="white"/>
</mask>
<g mask="url(#mask3_230_20)">
<path d="M180.117 15.8834H139.75V56.25H180.117V15.8834Z" fill="black"/>
</g>
<mask id="mask4_230_20" style="mask-type:luminance" maskUnits="userSpaceOnUse" x="151" y="27" width="18" height="18">
<path d="M168.583 44.7167V27.4167H151.283V44.7167H168.583Z" fill="white"/>
</mask>
<g mask="url(#mask4_230_20)">
<path d="M168.583 27.4167H151.283V44.7167H168.583V27.4167Z" fill="black"/>
</g>
<mask id="mask5_230_20" style="mask-type:luminance" maskUnits="userSpaceOnUse" x="12" y="142" width="42" height="42">
<path fill-rule="evenodd" clip-rule="evenodd" d="M12.8838 183.117H53.2505V142.75H12.8838L12.8838 183.117ZM18.6505 177.35V148.517H47.4838V177.35H18.6505Z" fill="white"/>
</mask>
<g mask="url(#mask5_230_20)">
<path d="M53.2505 142.75H12.8838V183.117H53.2505V142.75Z" fill="black"/>
</g>
<mask id="mask6_230_20" style="mask-type:luminance" maskUnits="userSpaceOnUse" x="24" y="154" width="18" height="18">
<path d="M24.417 154.283V171.583H41.717V154.283H24.417Z" fill="white"/>
</mask>
<g mask="url(#mask6_230_20)">
<path d="M41.717 154.283H24.417V171.583H41.717V154.283Z" fill="black"/>
</g>
<circle cx="97" cy="100" r="29" fill="#19162B"/>
</g>
</g>
<path d="M44 197C45.1046 197 46 196.105 46 195C46 193.895 45.1046 193 44 193L44 197ZM44 195L44 193L1.74846e-07 193L0 195L-1.74846e-07 197L44 197L44 195Z" fill="black"/>
<path d="M149 197C147.895 197 147 196.105 147 195C147 193.895 147.895 193 149 193L149 197ZM149 195L149 193L193 193L193 195L193 197L149 197L149 195Z" fill="black"/>
<path d="M147 0C145.895 -9.65646e-08 145 0.89543 145 2C145 3.10457 145.895 4 147 4L147 0ZM147 2L147 4L191 4L191 2L191 3.8466e-06L147 0L147 2Z" fill="black"/>
<path d="M44 1C45.1046 1 46 1.89543 46 3C46 4.10457 45.1046 5 44 5L44 1ZM44 3L44 5L1.74846e-07 5L0 3L-1.74846e-07 1L44 1L44 3Z" fill="black"/>
<path d="M4 152C4 150.895 3.10457 150 2 150C0.89543 150 0 150.895 0 152H4ZM2 196H4L4 152H2H0L0 196H2Z" fill="black"/>
<path d="M189 152C189 150.895 189.895 150 191 150C192.105 150 193 150.895 193 152H189ZM191 196H189V152H191H193V196H191Z" fill="black"/>
<path d="M187 45C187 46.1046 187.895 47 189 47C190.105 47 191 46.1046 191 45H187ZM189 1L187 1V45H189H191V1L189 1Z" fill="black"/>
<path d="M4 46C4 47.1046 3.10457 48 2 48C0.89543 48 0 47.1046 0 46H4ZM2 2L4 2L4 46H2H0L0 2L2 2Z" fill="black"/>
<g clip-path="url(#clip2_230_20)">
<path d="M117.062 111.376C117.062 112.351 116.678 113.287 115.994 113.977C115.31 114.667 114.382 115.054 113.415 115.054H80.5849C79.6176 115.054 78.6898 114.667 78.0058 113.977C77.3218 113.287 76.9375 112.351 76.9375 111.376V91.1396C76.9375 90.164 77.3218 89.2284 78.0058 88.5385C78.6898 87.8487 79.6176 87.4611 80.5849 87.4611H87.8804L91.5284 81.9456H102.471L106.119 87.4636H113.415C114.382 87.4636 115.31 87.8512 115.994 88.541C116.678 89.2309 117.062 90.1665 117.062 91.1421V111.376Z" stroke="white" stroke-width="3" stroke-linecap="round" stroke-linejoin="round"/>
<path d="M104.295 100.339C104.295 101.794 103.867 103.217 103.066 104.427C102.264 105.637 101.124 106.58 99.7914 107.137C98.4583 107.694 96.9915 107.839 95.5763 107.555C94.1611 107.272 92.8612 106.571 91.8409 105.542C90.8206 104.513 90.1258 103.202 89.8443 101.775C89.5628 100.347 89.7073 98.8681 90.2594 97.5236C90.8116 96.1792 91.7467 95.0301 92.9464 94.2217C94.1462 93.4132 95.5567 92.9817 96.9996 92.9817C98.9344 92.9817 100.79 93.7569 102.158 95.1367C103.526 96.5165 104.295 98.3879 104.295 100.339Z" stroke="white" stroke-width="3" stroke-linecap="round" stroke-linejoin="round"/>
</g>
<defs>
<clipPath id="clip0_230_20">
<rect width="173" height="173" fill="white" transform="translate(10 13)"/>
</clipPath>
<clipPath id="clip1_230_20">
<rect width="173" height="173" fill="white" transform="translate(10 13)"/>
</clipPath>
<clipPath id="clip2_230_20">
<rect width="42" height="35" fill="white" transform="translate(76 81)"/>
</clipPath>
</defs>
</svg>
